# xmcd CD database file
#
# Track frame offsets:
#	150
#	13272
#	26972
#	39797
#	52430
#	63197
#	76902
#	91370
#	103937
#	116067
#	128397
#	140867
#
# Disc length: 2064 seconds
#
# Revision: 0
# Processed by: cddbd v1.5.2PL0 Copyright (c) Steve Scherf et al.
# Submitted via: CDex 1.51
#
DISCID=a7080e0c
DTITLE=Canário e Passarinho - Os Grandes Sucessos
DYEAR=1998
DGENRE=Country
TTITLE0=Gaiola de Ouro
TTITLE1=Não Amo Ninguém
TTITLE2=Copo de Veneno
TTITLE3=A Dama De Vermelho
TTITLE4=Volta Da Pombinha
TTITLE5=Me Da Um Beijo
TTITLE6=Eu, Ela e o Garçom
TTITLE7=Carta Triste
TTITLE8=A Mulher Do Coração De Pedra
TTITLE9=Janicinha
TTITLE10=Sete Dias
TTITLE11=Coitadinha da Regina
EXTD=YEAR: 1998
EXTT0=
EXTT1=
EXTT2=
EXTT3=
EXTT4=
EXTT5=
EXTT6=
EXTT7=
EXTT8=
EXTT9=
EXTT10=
EXTT11=
PLAYORDER=
